<?xml version="1.0" encoding="UTF-8" standalone="no"?>
<svg width="149px" height="39px" viewBox="0 0 149 39" version="1.1" xmlns="http://www.w3.org/2000/svg" xmlns:xlink="http://www.w3.org/1999/xlink" xmlns:sketch="http://www.bohemiancoding.com/sketch/ns">
    <!-- Generator: Sketch 3.2.2 (9983) - http://www.bohemiancoding.com/sketch -->
    <title>TETRAPOD</title>
    <desc>Created with Sketch.</desc>
    <defs></defs>
    <g id="Page-1" stroke="none" stroke-width="1" fill="none" fill-rule="evenodd" sketch:type="MSPage">
        <g id="tetrapod-homepage" sketch:type="MSArtboardGroup" transform="translate(-275.000000, -47.000000)" fill="#F9F9F9">
            <g id="Group" sketch:type="MSLayerGroup" transform="translate(-245.000000, 0.000000)">
                <path d="M526.422,64.154 C526.422,65.272 527.306,66.156 528.424,66.156 C529.542,66.156 530.426,65.272 530.426,64.154 L530.426,51.492 L534.274,51.492 C535.288,51.492 536.12,50.66 536.12,49.646 C536.12,48.632 535.288,47.8 534.274,47.8 L522.574,47.8 C521.56,47.8 520.728,48.632 520.728,49.646 C520.728,50.66 521.56,51.492 522.574,51.492 L526.422,51.492 L526.422,64.154 Z M541.034,66 L551.252,66 C552.24,66 553.046,65.22 553.046,64.232 C553.046,63.244 552.24,62.438 551.252,62.438 L543.01,62.438 L543.01,58.616 L549.952,58.616 C550.94,58.616 551.746,57.836 551.746,56.848 C551.746,55.86 550.94,55.054 549.952,55.054 L543.01,55.054 L543.01,51.362 L551.122,51.362 C552.11,51.362 552.916,50.582 552.916,49.594 C552.916,48.606 552.11,47.8 551.122,47.8 L541.034,47.8 C539.916,47.8 539.032,48.684 539.032,49.802 L539.032,63.998 C539.032,65.116 539.916,66 541.034,66 L541.034,66 Z M560.69,64.154 C560.69,65.272 561.574,66.156 562.692,66.156 C563.81,66.156 564.694,65.272 564.694,64.154 L564.694,51.492 L568.542,51.492 C569.556,51.492 570.388,50.66 570.388,49.646 C570.388,48.632 569.556,47.8 568.542,47.8 L556.842,47.8 C555.828,47.8 554.996,48.632 554.996,49.646 C554.996,50.66 555.828,51.492 556.842,51.492 L560.69,51.492 L560.69,64.154 Z M573.3,64.154 C573.3,65.272 574.184,66.156 575.302,66.156 C576.42,66.156 577.304,65.272 577.304,64.154 L577.304,60.176 L580.502,60.176 L584.402,65.116 C584.87,65.714 585.468,66.156 586.378,66.156 C587.34,66.156 588.276,65.428 588.276,64.31 C588.276,63.686 588.016,63.27 587.626,62.776 L584.844,59.396 C587.054,58.486 588.484,56.718 588.484,53.858 L588.484,53.806 C588.484,52.09 587.938,50.66 586.924,49.646 C585.728,48.45 583.934,47.8 581.62,47.8 L575.302,47.8 C574.184,47.8 573.3,48.684 573.3,49.802 L573.3,64.154 Z M577.304,56.64 L577.304,51.414 L581.282,51.414 C583.232,51.414 584.428,52.298 584.428,54.014 L584.428,54.066 C584.428,55.6 583.31,56.64 581.36,56.64 L577.304,56.64 Z M590.85,64.284 C590.85,65.324 591.656,66.156 592.696,66.156 C593.528,66.156 594.204,65.688 594.542,64.908 L595.816,61.918 L603.824,61.918 L605.046,64.778 C605.41,65.61 606.034,66.156 606.97,66.156 C608.036,66.156 608.868,65.298 608.868,64.232 C608.868,63.972 608.79,63.712 608.66,63.426 L602.316,49.1 C601.874,48.112 601.094,47.514 600.002,47.514 L599.768,47.514 C598.676,47.514 597.87,48.112 597.428,49.1 L591.084,63.426 C590.954,63.712 590.85,63.998 590.85,64.284 L590.85,64.284 Z M597.298,58.382 L599.82,52.376 L602.342,58.382 L597.298,58.382 Z M612.014,64.154 C612.014,65.272 612.898,66.156 614.016,66.156 C615.134,66.156 616.018,65.272 616.018,64.154 L616.018,60.54 L619.06,60.54 C623.142,60.54 626.418,58.356 626.418,54.144 L626.418,54.092 C626.418,50.374 623.792,47.8 619.45,47.8 L614.016,47.8 C612.898,47.8 612.014,48.684 612.014,49.802 L612.014,64.154 Z M616.018,56.978 L616.018,51.414 L619.112,51.414 C621.114,51.414 622.362,52.376 622.362,54.17 L622.362,54.222 C622.362,55.782 621.192,56.978 619.19,56.978 L616.018,56.978 Z M638.222,66.312 C643.838,66.312 647.92,62.074 647.92,56.9 L647.92,56.848 C647.92,51.674 643.89,47.488 638.274,47.488 C632.658,47.488 628.576,51.726 628.576,56.9 L628.576,56.952 C628.576,62.126 632.606,66.312 638.222,66.312 L638.222,66.312 Z M638.274,62.62 C635.05,62.62 632.762,60.02 632.762,56.9 L632.762,56.848 C632.762,53.728 634.998,51.18 638.222,51.18 C641.446,51.18 643.734,53.78 643.734,56.9 L643.734,56.952 C643.734,60.072 641.498,62.62 638.274,62.62 L638.274,62.62 Z M651.482,63.998 C651.482,65.116 652.366,66 653.484,66 L658.58,66 C664.3,66 668.252,62.022 668.252,56.9 L668.252,56.848 C668.252,51.726 664.3,47.8 658.58,47.8 L653.484,47.8 C652.366,47.8 651.482,48.684 651.482,49.802 L651.482,63.998 Z M655.486,62.386 L655.486,51.414 L658.58,51.414 C661.856,51.414 664.066,53.676 664.066,56.9 L664.066,56.952 C664.066,60.176 661.856,62.386 658.58,62.386 L655.486,62.386 Z M525.424,85.16 C527.648,85.16 529.248,83.912 529.248,81.992 L529.248,81.96 C529.248,80.248 528.096,79.336 525.6,78.792 C523.136,78.264 522.56,77.672 522.56,76.616 L522.56,76.584 C522.56,75.576 523.488,74.776 524.944,74.776 C525.984,74.776 526.896,75.064 527.84,75.752 C527.952,75.832 528.064,75.864 528.208,75.864 C528.544,75.864 528.816,75.592 528.816,75.256 C528.816,75.016 528.672,74.84 528.544,74.744 C527.52,74.008 526.448,73.64 524.976,73.64 C522.848,73.64 521.296,74.936 521.296,76.696 L521.296,76.728 C521.296,78.568 522.48,79.4 525.056,79.96 C527.408,80.456 527.968,81.048 527.968,82.088 L527.968,82.12 C527.968,83.224 526.976,84.024 525.472,84.024 C524.048,84.024 522.992,83.592 521.936,82.696 C521.856,82.616 521.712,82.552 521.552,82.552 C521.216,82.552 520.944,82.824 520.944,83.176 C520.944,83.384 521.04,83.56 521.184,83.656 C522.432,84.648 523.792,85.16 525.424,85.16 L525.424,85.16 Z M544.324,85.192 C547.732,85.192 550.052,82.488 550.052,79.4 L550.052,79.368 C550.052,76.28 547.764,73.608 544.356,73.608 C540.948,73.608 538.628,76.312 538.628,79.4 L538.628,79.432 C538.628,82.52 540.916,85.192 544.324,85.192 L544.324,85.192 Z M544.356,84.024 C541.796,84.024 539.94,81.944 539.94,79.4 L539.94,79.368 C539.94,76.824 541.764,74.776 544.324,74.776 C546.884,74.776 548.74,76.856 548.74,79.4 L548.74,79.432 C548.74,81.976 546.916,84.024 544.356,84.024 L544.356,84.024 Z M560.024,84.44 C560.024,84.792 560.312,85.08 560.648,85.08 C561,85.08 561.288,84.792 561.288,84.44 L561.288,80.12 L566.856,80.12 C567.176,80.12 567.432,79.864 567.432,79.544 C567.432,79.224 567.176,78.968 566.856,78.968 L561.288,78.968 L561.288,74.968 L567.576,74.968 C567.896,74.968 568.152,74.696 568.152,74.376 C568.152,74.056 567.896,73.8 567.576,73.8 L560.648,73.8 C560.312,73.8 560.024,74.088 560.024,74.44 L560.024,84.44 Z M580.780001,84.44 C580.780001,84.792 581.068001,85.08 581.420001,85.08 C581.772001,85.08 582.060001,84.792 582.060001,84.44 L582.060001,74.968 L585.308001,74.968 C585.628001,74.968 585.900001,74.712 585.900001,74.392 C585.900001,74.072 585.628001,73.8 585.308001,73.8 L577.532001,73.8 C577.212001,73.8 576.940001,74.072 576.940001,74.392 C576.940001,74.712 577.212001,74.968 577.532001,74.968 L580.780001,74.968 L580.780001,84.44 Z M598.400001,84.6 C598.512001,84.936 598.736001,85.144 599.056001,85.144 L599.152001,85.144 C599.472001,85.144 599.696001,84.92 599.808001,84.6 L602.704001,75.992 L605.616001,84.6 C605.728001,84.92 605.952001,85.144 606.272001,85.144 L606.368001,85.144 C606.688001,85.144 606.912001,84.92 607.024001,84.6 L610.608001,74.648 C610.640001,74.552 610.688001,74.44 610.688001,74.344 C610.688001,74.024 610.384001,73.72 610.048001,73.72 C609.744001,73.72 609.536001,73.928 609.440001,74.216 L606.336001,83.144 L603.408001,74.216 C603.312001,73.928 603.104001,73.72 602.784001,73.72 L602.704001,73.72 C602.368001,73.72 602.176001,73.928 602.080001,74.216 L599.152001,83.144 L596.064001,74.248 C595.968001,73.96 595.728001,73.72 595.408001,73.72 C595.056001,73.72 594.752001,74.024 594.752001,74.36 C594.752001,74.456 594.784001,74.552 594.816001,74.648 L598.400001,84.6 Z M618.324001,84.504 C618.324001,84.824 618.580001,85.08 618.900001,85.08 C619.188001,85.08 619.396001,84.92 619.508001,84.648 L620.676001,82.04 L626.820001,82.04 L627.988001,84.616 C628.100001,84.872 628.308001,85.08 628.612001,85.08 C628.948001,85.08 629.220001,84.808 629.220001,84.472 C629.220001,84.376 629.188001,84.264 629.140001,84.152 L624.596001,74.232 C624.452001,73.88 624.196001,73.672 623.812001,73.672 L623.748001,73.672 C623.348001,73.672 623.108001,73.88 622.948001,74.232 L618.404001,84.168 C618.340001,84.296 618.324001,84.408 618.324001,84.504 L618.324001,84.504 Z M621.172001,80.888 L623.748001,75.16 L626.324001,80.888 L621.172001,80.888 Z M638.936001,84.44 C638.936001,84.792 639.224001,85.08 639.560001,85.08 C639.912001,85.08 640.200001,84.792 640.200001,84.44 L640.200001,80.648 L643.416001,80.648 L646.568001,84.744 C646.712001,84.936 646.904001,85.08 647.160001,85.08 C647.480001,85.08 647.800001,84.792 647.800001,84.456 C647.800001,84.28 647.720001,84.136 647.592001,83.992 L644.808001,80.408 C646.552001,80.072 647.800001,79 647.800001,77.16 L647.800001,77.128 C647.800001,76.248 647.480001,75.464 646.936001,74.92 C646.232001,74.216 645.128001,73.8 643.752001,73.8 L639.560001,73.8 C639.224001,73.8 638.936001,74.088 638.936001,74.44 L638.936001,84.44 Z M640.200001,79.512 L640.200001,74.968 L643.656001,74.968 C645.464001,74.968 646.520001,75.8 646.520001,77.176 L646.520001,77.208 C646.520001,78.648 645.320001,79.512 643.640001,79.512 L640.200001,79.512 Z M658.428001,85 L665.468001,85 C665.788001,85 666.044001,84.744 666.044001,84.424 C666.044001,84.104 665.788001,83.848 665.468001,83.848 L659.068001,83.848 L659.068001,79.928 L664.668001,79.928 C664.988001,79.928 665.244001,79.672 665.244001,79.352 C665.244001,79.048 664.988001,78.776 664.668001,78.776 L659.068001,78.776 L659.068001,74.952 L665.388001,74.952 C665.708001,74.952 665.964001,74.696 665.964001,74.376 C665.964001,74.056 665.708001,73.8 665.388001,73.8 L658.428001,73.8 C658.092001,73.8 657.804001,74.088 657.804001,74.44 L657.804001,84.36 C657.804001,84.712 658.092001,85 658.428001,85 L658.428001,85 Z" id="TETRAPOD" sketch:type="MSShapeGroup"></path>
            </g>
        </g>
    </g>
</svg>