<?xml version="1.0" encoding="UTF-8" standalone="no"?>
<svg width="1440px" height="542px" viewBox="0 0 1440 542" version="1.1" xmlns="http://www.w3.org/2000/svg" xmlns:xlink="http://www.w3.org/1999/xlink" xmlns:sketch="http://www.bohemiancoding.com/sketch/ns">
    <!-- Generator: Sketch 3.2.2 (9983) - http://www.bohemiancoding.com/sketch -->
    <title>Head</title>
    <desc>Created with Sketch.</desc>
    <defs>
        <rect id="path-1" x="0" y="0" width="1440" height="670"></rect>
        <path d="M119.299119,547.998547 L97.9345157,547.998547 C82.6697974,547.998547 70.2991192,536.552823 70.2991192,522.430628 L70.2991192,338.566465 C70.2991192,324.44427 82.6697974,312.998547 97.9345157,312.998547 L296.663723,312.998547 C311.924603,312.998547 324.299119,324.44427 324.299119,338.566465 L324.299119,522.430628 C324.299119,536.552823 311.924603,547.998547 296.663723,547.998547 L183.663851,547.998547 L119.299119,620.998547 L119.299119,547.998547 Z" id="path-3"></path>
        <path d="M470.834609,379.495813 L455.753712,379.495813 C444.978617,379.495813 436.246373,371.43178 436.246373,361.482052 L436.246373,231.941392 C436.246373,221.991664 444.978617,213.927631 455.753712,213.927631 L596.033152,213.927631 C606.805538,213.927631 615.540491,221.991664 615.540491,231.941392 L615.540491,361.482052 C615.540491,371.43178 606.805538,379.495813 596.033152,379.495813 L516.268537,379.495813 L470.834609,430.927631 L470.834609,379.495813 Z" id="path-5"></path>
        <path d="M426.316389,582.646563 L416.513806,582.646563 C409.509994,582.646563 403.834036,577.443961 403.834036,571.024781 L403.834036,487.450162 C403.834036,481.030982 409.509994,475.828381 416.513806,475.828381 L507.695442,475.828381 C514.697493,475.828381 520.375212,481.030982 520.375212,487.450162 L520.375212,571.024781 C520.375212,577.443961 514.697493,582.646563 507.695442,582.646563 L455.848442,582.646563 L426.316389,615.828381 L426.316389,582.646563 Z" id="path-7"></path>
        <path d="M1157.12515,551.842795 L1142.04426,551.842795 C1131.26916,551.842795 1122.53692,543.778762 1122.53692,533.829034 L1122.53692,404.288374 C1122.53692,394.338646 1131.26916,386.274613 1142.04426,386.274613 L1282.3237,386.274613 C1293.09608,386.274613 1301.83103,394.338646 1301.83103,404.288374 L1301.83103,533.829034 C1301.83103,543.778762 1293.09608,551.842795 1282.3237,551.842795 L1202.55908,551.842795 L1157.12515,603.274613 L1157.12515,551.842795 Z" id="path-9"></path>
        <path d="M1099.33006,206.224658 L1089.19235,206.224658 C1081.94909,206.224658 1076.07908,200.836249 1076.07908,194.187813 L1076.07908,107.628386 C1076.07908,100.97995 1081.94909,95.5915414 1089.19235,95.5915414 L1183.4913,95.5915414 C1190.73274,95.5915414 1196.60457,100.97995 1196.60457,107.628386 L1196.60457,194.187813 C1196.60457,200.836249 1190.73274,206.224658 1183.4913,206.224658 L1129.87176,206.224658 L1099.33006,240.591541 L1099.33006,206.224658 Z" id="path-11"></path>
        <path d="M1398.95131,305.781285 L1387.64064,305.781285 C1379.55932,305.781285 1373.01014,299.761132 1373.01014,292.333224 L1373.01014,195.62545 C1373.01014,188.197542 1379.55932,182.177389 1387.64064,182.177389 L1492.85022,182.177389 C1500.92951,182.177389 1507.48073,188.197542 1507.48073,195.62545 L1507.48073,292.333224 C1507.48073,299.761132 1500.92951,305.781285 1492.85022,305.781285 L1433.02676,305.781285 L1398.95131,344.177389 L1398.95131,305.781285 Z" id="path-13"></path>
        <path d="M-41.0486866,305.781285 L-52.3593591,305.781285 C-60.4406805,305.781285 -66.9898631,299.761132 -66.9898631,292.333224 L-66.9898631,195.62545 C-66.9898631,188.197542 -60.4406805,182.177389 -52.3593591,182.177389 L52.8502211,182.177389 C60.9295106,182.177389 67.4807251,188.197542 67.4807251,195.62545 L67.4807251,292.333224 C67.4807251,299.761132 60.9295106,305.781285 52.8502211,305.781285 L-6.97324046,305.781285 L-41.0486866,344.177389 L-41.0486866,305.781285 Z" id="path-15"></path>
        <path d="M885.523269,364.969259 L874.212597,364.969259 C866.131275,364.969259 859.582093,358.949106 859.582093,351.521198 L859.582093,254.813424 C859.582093,247.385516 866.131275,241.365363 874.212597,241.365363 L979.422177,241.365363 C987.501466,241.365363 994.052681,247.385516 994.052681,254.813424 L994.052681,351.521198 C994.052681,358.949106 987.501466,364.969259 979.422177,364.969259 L919.598715,364.969259 L885.523269,403.365363 L885.523269,364.969259 Z" id="path-17"></path>
        <path d="M916.597465,568.053964 L910.146192,568.053964 C905.536846,568.053964 901.801386,564.635112 901.801386,560.416794 L901.801386,505.49633 C901.801386,501.278012 905.536846,497.859159 910.146192,497.859159 L970.154619,497.859159 C974.762807,497.859159 978.499425,501.278012 978.499425,505.49633 L978.499425,560.416794 C978.499425,564.635112 974.762807,568.053964 970.154619,568.053964 L936.03309,568.053964 L916.597465,589.859159 L916.597465,568.053964 Z" id="path-19"></path>
        <path d="M117.597465,151.52635 L111.146192,151.52635 C106.536846,151.52635 102.801386,148.107498 102.801386,143.88918 L102.801386,88.9687156 C102.801386,84.7503976 106.536846,81.3315451 111.146192,81.3315451 L171.154619,81.3315451 C175.762807,81.3315451 179.499425,84.7503976 179.499425,88.9687156 L179.499425,143.88918 C179.499425,148.107498 175.762807,151.52635 171.154619,151.52635 L137.03309,151.52635 L117.597465,173.331545 L117.597465,151.52635 Z" id="path-21"></path>
        <path d="M725.64805,486.52635 L719.196777,486.52635 C714.587431,486.52635 710.851971,483.107498 710.851971,478.88918 L710.851971,423.968716 C710.851971,419.750398 714.587431,416.331545 719.196777,416.331545 L779.205204,416.331545 C783.813392,416.331545 787.55001,419.750398 787.55001,423.968716 L787.55001,478.88918 C787.55001,483.107498 783.813392,486.52635 779.205204,486.52635 L745.083675,486.52635 L725.64805,508.331545 L725.64805,486.52635 Z" id="path-23"></path>
        <path d="M696.589814,200.644489 L690.138541,200.644489 C685.529195,200.644489 681.793735,197.225637 681.793735,193.007319 L681.793735,138.086855 C681.793735,133.868537 685.529195,130.449684 690.138541,130.449684 L750.146968,130.449684 C754.755156,130.449684 758.491774,133.868537 758.491774,138.086855 L758.491774,193.007319 C758.491774,197.225637 754.755156,200.644489 750.146968,200.644489 L716.025438,200.644489 L696.589814,222.449684 L696.589814,200.644489 Z" id="path-25"></path>
    </defs>
    <g id="Page-1" stroke="none" stroke-width="1" fill="none" fill-rule="evenodd" sketch:type="MSPage">
        <g id="tetrapod-homepage-2" sketch:type="MSArtboardGroup" transform="translate(0.000000, -78.000000)">
            <g id="Head" sketch:type="MSLayerGroup">
                <mask id="mask-2" sketch:name="Rectangle 6" fill="white">
                    <use xlink:href="#path-1"></use>
                </mask>
                <g id="Rectangle-6">
                    <use sketch:type="MSShapeGroup" xlink:href="#path-1"></use>
                    <use xlink:href="#path-1"></use>
                </g>
                <mask id="mask-4" sketch:name="Fill 7" fill="white">
                    <use xlink:href="#path-3"></use>
                </mask>
                <use id="Fill-7" stroke="#576271" sketch:type="MSShapeGroup" transform="translate(197.299119, 466.998547) rotate(17.000000) translate(-197.299119, -466.998547) " xlink:href="#path-3"></use>
                <mask id="mask-6" sketch:name="Fill 7" fill="white">
                    <use xlink:href="#path-5"></use>
                </mask>
                <use id="Fill-7" stroke="#576271" sketch:type="MSShapeGroup" transform="translate(525.893432, 322.427631) rotate(-6.000000) translate(-525.893432, -322.427631) " xlink:href="#path-5"></use>
                <mask id="mask-8" sketch:name="Fill 7" fill="white">
                    <use xlink:href="#path-7"></use>
                </mask>
                <use id="Fill-7" stroke="#576271" sketch:type="MSShapeGroup" transform="translate(462.104624, 545.828381) rotate(-6.000000) translate(-462.104624, -545.828381) " xlink:href="#path-7"></use>
                <mask id="mask-10" sketch:name="Fill 7" fill="white">
                    <use xlink:href="#path-9"></use>
                </mask>
                <use id="Fill-7" stroke="#576271" sketch:type="MSShapeGroup" transform="translate(1212.183976, 494.774613) rotate(18.000000) translate(-1212.183976, -494.774613) " xlink:href="#path-9"></use>
                <mask id="mask-12" sketch:name="Fill 7" fill="white">
                    <use xlink:href="#path-11"></use>
                </mask>
                <use id="Fill-7" stroke="#576271" sketch:type="MSShapeGroup" transform="translate(1136.341825, 168.091541) rotate(23.000000) translate(-1136.341825, -168.091541) " xlink:href="#path-11"></use>
                <mask id="mask-14" sketch:name="Fill 7" fill="white">
                    <use xlink:href="#path-13"></use>
                </mask>
                <use id="Fill-7" stroke="#576271" sketch:type="MSShapeGroup" transform="translate(1440.245431, 263.177389) rotate(-22.000000) translate(-1440.245431, -263.177389) " xlink:href="#path-13"></use>
                <mask id="mask-16" sketch:name="Fill 7" fill="white">
                    <use xlink:href="#path-15"></use>
                </mask>
                <use id="Fill-7" stroke="#576271" sketch:type="MSShapeGroup" transform="translate(0.245431, 263.177389) rotate(-22.000000) translate(-0.245431, -263.177389) " xlink:href="#path-15"></use>
                <mask id="mask-18" sketch:name="Fill 7" fill="white">
                    <use xlink:href="#path-17"></use>
                </mask>
                <use id="Fill-7" stroke="#576271" sketch:type="MSShapeGroup" transform="translate(926.817387, 322.365363) rotate(-22.000000) translate(-926.817387, -322.365363) " xlink:href="#path-17"></use>
                <mask id="mask-20" sketch:name="Fill 7" fill="white">
                    <use xlink:href="#path-19"></use>
                </mask>
                <use id="Fill-7" stroke="#576271" sketch:type="MSShapeGroup" transform="translate(940.150406, 543.859159) rotate(5.000000) translate(-940.150406, -543.859159) " xlink:href="#path-19"></use>
                <mask id="mask-22" sketch:name="Fill 7" fill="white">
                    <use xlink:href="#path-21"></use>
                </mask>
                <use id="Fill-7" stroke="#576271" sketch:type="MSShapeGroup" transform="translate(141.150406, 127.331545) rotate(5.000000) translate(-141.150406, -127.331545) " xlink:href="#path-21"></use>
                <mask id="mask-24" sketch:name="Fill 7" fill="white">
                    <use xlink:href="#path-23"></use>
                </mask>
                <use id="Fill-7" stroke="#576271" sketch:type="MSShapeGroup" transform="translate(749.200991, 462.331545) rotate(5.000000) translate(-749.200991, -462.331545) " xlink:href="#path-23"></use>
                <mask id="mask-26" sketch:name="Fill 7" fill="white">
                    <use xlink:href="#path-25"></use>
                </mask>
                <use id="Fill-7" stroke="#576271" sketch:type="MSShapeGroup" transform="translate(720.142755, 176.449684) rotate(-19.000000) translate(-720.142755, -176.449684) " xlink:href="#path-25"></use>
            </g>
        </g>
    </g>
</svg>