<?xml version="1.0" encoding="UTF-8" standalone="no"?>
<svg width="1440px" height="492px" viewBox="0 0 1440 492" version="1.1" xmlns="http://www.w3.org/2000/svg" xmlns:xlink="http://www.w3.org/1999/xlink" xmlns:sketch="http://www.bohemiancoding.com/sketch/ns">
    <!-- Generator: Sketch 3.2.2 (9983) - http://www.bohemiancoding.com/sketch -->
    <title>tetrapod-header</title>
    <desc>Created with Sketch.</desc>
    <defs>
        <rect id="path-1" x="0" y="0" width="1440" height="670"></rect>
    </defs>
    <g id="Page-1" stroke="none" stroke-width="1" fill="none" fill-rule="evenodd" sketch:type="MSPage">
        <g id="tetrapod-homepage-3" sketch:type="MSArtboardGroup" transform="translate(0.000000, -78.000000)">
            <g id="Group" sketch:type="MSLayerGroup" transform="translate(0.000000, -100.000000)">
                <g id="tetrapod-header">
                    <mask id="mask-2" sketch:name="Mask" fill="white">
                        <use xlink:href="#path-1"></use>
                    </mask>
                    <g id="Mask">
                        <use sketch:type="MSShapeGroup" xlink:href="#path-1"></use>
                        <use xlink:href="#path-1"></use>
                    </g>
                    <g id="Fill-7-+-Fill-8" mask="url(#mask-2)" stroke="#FFFFFF" sketch:type="MSShapeGroup">
                        <g transform="translate(196.820967, 566.852361) rotate(17.000000) translate(-196.820967, -566.852361) translate(69.320967, 412.852361)" id="Fill-7">
                            <path d="M50,235 L28.6353965,235 C13.3706782,235 1,223.554276 1,209.432081 L1,25.5679188 C1,11.4457236 13.3706782,1.13686838e-13 28.6353965,1.13686838e-13 L227.364603,1.13686838e-13 C242.625484,1.13686838e-13 255,11.4457236 255,25.5679188 L255,209.432081 C255,223.554276 242.625484,235 227.364603,235 L114.364732,235 L50,308 L50,235 Z"></path>
                        </g>
                    </g>
                    <g id="Fill-7-+-Fill-9" mask="url(#mask-2)" stroke="#FFFFFF" sketch:type="MSShapeGroup">
                        <g transform="translate(525.542424, 422.464524) rotate(-6.000000) translate(-525.542424, -422.464524) translate(435.542424, 313.964524)" id="Fill-7">
                            <path d="M35.2941176,165.568182 L20.2132211,165.568182 C9.43812578,165.568182 0.705882353,157.504149 0.705882353,147.554421 L0.705882353,18.0137609 C0.705882353,8.06403256 9.43812578,8.00975448e-14 20.2132211,8.00975448e-14 L160.492661,8.00975448e-14 C171.265047,8.00975448e-14 180,8.06403256 180,18.0137609 L180,147.554421 C180,157.504149 171.265047,165.568182 160.492661,165.568182 L80.7280459,165.568182 L35.2941176,217 L35.2941176,165.568182 Z"></path>
                        </g>
                    </g>
                    <g id="Fill-7-+-Fill-16" mask="url(#mask-2)" stroke="#FFFFFF" sketch:type="MSShapeGroup">
                        <g transform="translate(461.876469, 645.852361) rotate(-6.000000) translate(-461.876469, -645.852361) translate(403.376469, 575.852361)" id="Fill-7">
                            <path d="M22.9411765,106.818182 L13.1385937,106.818182 C6.13478176,106.818182 0.458823529,101.61558 0.458823529,95.1964006 L0.458823529,11.6217813 C0.458823529,5.20260165 6.13478176,5.16758353e-14 13.1385937,5.16758353e-14 L104.32023,5.16758353e-14 C111.322281,5.16758353e-14 117,5.20260165 117,11.6217813 L117,95.1964006 C117,101.61558 111.322281,106.818182 104.32023,106.818182 L52.4732298,106.818182 L22.9411765,140 L22.9411765,106.818182 Z"></path>
                        </g>
                    </g>
                    <g id="Fill-7-+-Fill-10" mask="url(#mask-2)" stroke="#FFFFFF" sketch:type="MSShapeGroup">
                        <g transform="translate(1211.848309, 594.665548) rotate(18.000000) translate(-1211.848309, -594.665548) translate(1121.848309, 486.165548)" id="Fill-7">
                            <path d="M35.2941176,165.568182 L20.2132211,165.568182 C9.43812578,165.568182 0.705882353,157.504149 0.705882353,147.554421 L0.705882353,18.0137609 C0.705882353,8.06403256 9.43812578,8.00975448e-14 20.2132211,8.00975448e-14 L160.492661,8.00975448e-14 C171.265047,8.00975448e-14 180,8.06403256 180,18.0137609 L180,147.554421 C180,157.504149 171.265047,165.568182 160.492661,165.568182 L80.7280459,165.568182 L35.2941176,217 L35.2941176,165.568182 Z"></path>
                        </g>
                    </g>
                    <g id="Fill-7-+-Fill-11" mask="url(#mask-2)" stroke="#FFFFFF" sketch:type="MSShapeGroup">
                        <g transform="translate(1136.123430, 267.998838) rotate(23.000000) translate(-1136.123430, -267.998838) translate(1075.623430, 195.498838)" id="Fill-7">
                            <path d="M23.7254902,110.633117 L13.5877764,110.633117 C6.34451789,110.633117 0.474509804,105.244708 0.474509804,98.596272 L0.474509804,12.0368449 C0.474509804,5.38840885 6.34451789,5.35214009e-14 13.5877764,5.35214009e-14 L107.886733,5.35214009e-14 C115.128171,5.35214009e-14 121,5.38840885 121,12.0368449 L121,98.596272 C121,105.244708 115.128171,110.633117 107.886733,110.633117 L54.2671864,110.633117 L23.7254902,145 L23.7254902,110.633117 Z"></path>
                        </g>
                    </g>
                    <g id="Fill-7-+-Fill-12" mask="url(#mask-2)" stroke="#FFFFFF" sketch:type="MSShapeGroup">
                        <g transform="translate(1440.000000, 363.276549) rotate(-22.000000) translate(-1440.000000, -363.276549) translate(1372.500000, 282.276549)" id="Fill-7">
                            <path d="M26.4705882,123.603896 L15.1599158,123.603896 C7.07859434,123.603896 0.529411765,117.583743 0.529411765,110.155835 L0.529411765,13.4480612 C0.529411765,6.02015334 7.07859434,5.97963237e-14 15.1599158,5.97963237e-14 L120.369496,5.97963237e-14 C128.448785,5.97963237e-14 135,6.02015334 135,13.4480612 L135,110.155835 C135,117.583743 128.448785,123.603896 120.369496,123.603896 L60.5460344,123.603896 L26.4705882,162 L26.4705882,123.603896 Z"></path>
                        </g>
                    </g>
                    <g id="Fill-7-+-Fill-19" mask="url(#mask-2)" stroke="#FFFFFF" sketch:type="MSShapeGroup">
                        <g transform="translate(0.000000, 363.276549) rotate(-22.000000) translate(-0.000000, -363.276549) translate(-67.500000, 282.276549)" id="Fill-7">
                            <path d="M26.4705882,123.603896 L15.1599158,123.603896 C7.07859434,123.603896 0.529411765,117.583743 0.529411765,110.155835 L0.529411765,13.4480612 C0.529411765,6.02015334 7.07859434,0 15.1599158,0 L120.369496,0 C128.448785,0 135,6.02015334 135,13.4480612 L135,110.155835 C135,117.583743 128.448785,123.603896 120.369496,123.603896 L60.5460344,123.603896 L26.4705882,162 L26.4705882,123.603896 Z"></path>
                        </g>
                    </g>
                    <g id="Fill-7-+-Fill-15" mask="url(#mask-2)" stroke="#FFFFFF" sketch:type="MSShapeGroup">
                        <g transform="translate(940.000000, 368.386676) rotate(-22.000000) translate(-940.000000, -368.386676) translate(872.500000, 287.386676)" id="Fill-7">
                            <path d="M26.4705882,123.603896 L15.1599158,123.603896 C7.07859434,123.603896 0.529411765,117.583743 0.529411765,110.155835 L0.529411765,13.4480612 C0.529411765,6.02015334 7.07859434,-1.13686838e-13 15.1599158,-1.13686838e-13 L120.369496,-1.13686838e-13 C128.448785,-1.13686838e-13 135,6.02015334 135,13.4480612 L135,110.155835 C135,117.583743 128.448785,123.603896 120.369496,123.603896 L60.5460344,123.603896 L26.4705882,162 L26.4705882,123.603896 Z"></path>
                        </g>
                    </g>
                    <g id="Fill-7-+-Fill-13" mask="url(#mask-2)" stroke="#FFFFFF" sketch:type="MSShapeGroup">
                        <g transform="translate(940.000000, 643.846000) rotate(5.000000) translate(-940.000000, -643.846000) translate(901.500000, 597.846000)" id="Fill-7">
                            <path d="M15.0980392,70.1948052 L8.64676679,70.1948052 C4.03742047,70.1948052 0.301960784,66.7759527 0.301960784,62.5576347 L0.301960784,7.63717054 C0.301960784,3.41885251 4.03742047,3.39584061e-14 8.64676679,3.39584061e-14 L68.655194,3.39584061e-14 C73.2633813,3.39584061e-14 77,3.41885251 77,7.63717054 L77,62.5576347 C77,66.7759527 73.2633813,70.1948052 68.655194,70.1948052 L34.5336641,70.1948052 L15.0980392,92 L15.0980392,70.1948052 Z"></path>
                        </g>
                    </g>
                    <g id="Fill-7-+-Fill-14" mask="url(#mask-2)" stroke="#FFFFFF" sketch:type="MSShapeGroup">
                        <g transform="translate(141.000000, 227.318386) rotate(5.000000) translate(-141.000000, -227.318386) translate(102.500000, 181.318386)" id="Fill-7">
                            <path d="M15.0980392,70.1948052 L8.64676679,70.1948052 C4.03742047,70.1948052 0.301960784,66.7759527 0.301960784,62.5576347 L0.301960784,7.63717054 C0.301960784,3.41885251 4.03742047,3.39584061e-14 8.64676679,3.39584061e-14 L68.655194,3.39584061e-14 C73.2633813,3.39584061e-14 77,3.41885251 77,7.63717054 L77,62.5576347 C77,66.7759527 73.2633813,70.1948052 68.655194,70.1948052 L34.5336641,70.1948052 L15.0980392,92 L15.0980392,70.1948052 Z"></path>
                        </g>
                    </g>
                    <g id="Fill-7-+-Fill-18" mask="url(#mask-2)" stroke="#FFFFFF" sketch:type="MSShapeGroup">
                        <g transform="translate(749.050585, 562.318386) rotate(5.000000) translate(-749.050585, -562.318386) translate(710.550585, 516.318386)" id="Fill-7">
                            <path d="M15.0980392,70.1948052 L8.64676679,70.1948052 C4.03742047,70.1948052 0.301960784,66.7759527 0.301960784,62.5576347 L0.301960784,7.63717054 C0.301960784,3.41885251 4.03742047,3.39584061e-14 8.64676679,3.39584061e-14 L68.655194,3.39584061e-14 C73.2633813,3.39584061e-14 77,3.41885251 77,7.63717054 L77,62.5576347 C77,66.7759527 73.2633813,70.1948052 68.655194,70.1948052 L34.5336641,70.1948052 L15.0980392,92 L15.0980392,70.1948052 Z"></path>
                        </g>
                    </g>
                    <g id="Fill-7-+-Fill-17" mask="url(#mask-2)" stroke="#FFFFFF" sketch:type="MSShapeGroup">
                        <g transform="translate(720.000000, 276.498838) rotate(-19.000000) translate(-720.000000, -276.498838) translate(681.500000, 230.498838)" id="Fill-7">
                            <path d="M15.0980392,70.1948052 L8.64676679,70.1948052 C4.03742047,70.1948052 0.301960784,66.7759527 0.301960784,62.5576347 L0.301960784,7.63717054 C0.301960784,3.41885251 4.03742047,3.39584061e-14 8.64676679,3.39584061e-14 L68.655194,3.39584061e-14 C73.2633813,3.39584061e-14 77,3.41885251 77,7.63717054 L77,62.5576347 C77,66.7759527 73.2633813,70.1948052 68.655194,70.1948052 L34.5336641,70.1948052 L15.0980392,92 L15.0980392,70.1948052 Z"></path>
                        </g>
                    </g>
                </g>
            </g>
        </g>
    </g>
</svg>